<?xml version="1.0" ?><!DOCTYPE svg  PUBLIC '-//W3C//DTD SVG 1.1//EN'  'http://www.w3.org/Graphics/SVG/1.1/DTD/svg11.dtd'><svg enable-background="new 0 0 512 512" id="Layer_1" version="1.1" viewBox="0 0 512 512" xml:space="preserve" xmlns="http://www.w3.org/2000/svg" xmlns:xlink="http://www.w3.org/1999/xlink"><g><circle cx="256" cy="256" fill="#CECECE" r="244.5"/><g><path d="M223.7,445c0.3,0.8,0.1,1.8-0.6,2.4c-0.7,0.6-1.7,0.6-2.4,0.2l-51.2-31.6l-23-14.2l57.3-10.5l7.6,20.4    L223.7,445z" fill="#F43B3B"/><path d="M235.8,358.9c-4.3,2.6-9.8,2.3-13.6-0.9c-3.9-3.2-5.3-8.5-3.6-13.2l4.9-13.1c-3.9,8.3-12.4,14.1-22.2,14.1    c-13.5,0-24.5-11-24.5-24.5c0-13.6,11-24.6,24.5-24.6s24.5,11,24.5,24.6c0,2.3-0.3,4.5-0.9,6.6l9.8-26.2    c-29.2-14.9-51-42.3-58.2-75.1H91c-42.9,0-77.7,34.8-77.7,77.7v33.9c0,42.9,34.8,77.7,77.7,77.7h78.4l-23-14.2l57.3-10.5l7.6,20.4    c29.2-10.2,50.5-37.3,52-69.6L235.8,358.9z M75.3,345.8c-13.5,0-24.5-11-24.5-24.5c0-13.6,11-24.6,24.5-24.6    c13.6,0,24.5,11,24.5,24.6C99.9,334.8,88.9,345.8,75.3,345.8z M138.3,345.8c-13.5,0-24.5-11-24.5-24.5c0-13.6,11-24.6,24.5-24.6    c13.6,0,24.5,11,24.5,24.6C162.8,334.8,151.9,345.8,138.3,345.8z" fill="#F43B3B"/><path d="M99.9,321.2c0,13.5-11,24.5-24.5,24.5c-13.5,0-24.5-11-24.5-24.5c0-13.6,11-24.6,24.5-24.6    C88.9,296.7,99.9,307.7,99.9,321.2z" fill="#F43B3B"/><path d="M138.3,345.8c-13.5,0-24.5-11-24.5-24.5c0-13.6,11-24.6,24.5-24.6c13.6,0,24.5,11,24.5,24.6    C162.8,334.8,151.9,345.8,138.3,345.8z" fill="#F43B3B"/><path d="M203.6,391.1l7.6,20.4c-8,2.8-16.6,4.3-25.6,4.3h-16.2l-23-14.2L203.6,391.1z" fill="#F43B3B"/><path d="M263.3,304.3v33.9c0,1.3,0,2.5-0.1,3.8l-27.4,17c-4.3,2.6-9.8,2.3-13.6-0.9s-5.3-8.5-3.6-13.2l4.9-13.1    c-3.9,8.3-12.4,14.1-22.2,14.1c-13.5,0-24.5-11-24.5-24.5c0-13.6,11-24.6,24.5-24.6s24.5,11,24.5,24.6c0,2.3-0.3,4.5-0.9,6.6    l9.8-26.2c-29.2-14.9-51-42.3-58.2-75.1h9.1c28.5,0,53.3,15.3,66.9,38.1C259.4,276.3,263.3,289.8,263.3,304.3z" fill="#BC2E2E"/><g><path d="M99.9,321.2c0,13.5-11,24.5-24.5,24.5c-13.5,0-24.5-11-24.5-24.5c0-13.6,11-24.6,24.5-24.6     C88.9,296.7,99.9,307.7,99.9,321.2z" fill="#FFFFFF"/><path d="M162.8,321.2c0,13.5-11,24.5-24.5,24.5c-13.5,0-24.5-11-24.5-24.5c0-13.6,11-24.6,24.5-24.6     C151.9,296.7,162.8,307.7,162.8,321.2z" fill="#FFFFFF"/><path d="M225.8,321.2c0,2.3-0.3,4.5-0.9,6.6c-0.4,1.3-0.8,2.6-1.4,3.8c-3.9,8.3-12.4,14.1-22.2,14.1     c-13.5,0-24.5-11-24.5-24.5c0-13.6,11-24.6,24.5-24.6S225.8,307.7,225.8,321.2z" fill="#FFFFFF"/></g><path d="M262.5,268.4l-25.4,68.2c-0.3,0.8-0.1,1.8,0.6,2.4c0.7,0.6,1.7,0.6,2.4,0.2l93.4-57.7L262.5,268.4z" fill="#2BCBF7"/><path d="M498.7,202.7c0,53.3-43.2,96.4-96.4,96.4H284.8c-53.3,0-96.4-43.2-96.4-96.4v-42.1    c0-53.3,43.2-96.4,96.4-96.4h117.5c53.3,0,96.4,43.2,96.4,96.4V202.7z" fill="#2BCBF7"/><circle cx="421.7" cy="181.7" fill="#FFFFFF" r="30.5"/><circle cx="343.6" cy="181.7" fill="#FFFFFF" r="30.5"/><circle cx="265.4" cy="181.7" fill="#FFFFFF" r="30.5"/></g></g></svg>